<svg xmlns="http://www.w3.org/2000/svg" viewBox="0 0 320 420" fill="none">
  <defs>
    <linearGradient id="coolBody" x1="74" y1="54" x2="246" y2="366" gradientUnits="userSpaceOnUse">
      <stop stop-color="#101A13"/>
      <stop offset="1" stop-color="#09100B"/>
    </linearGradient>
    <linearGradient id="coolAccent" x1="110" y1="110" x2="210" y2="298" gradientUnits="userSpaceOnUse">
      <stop stop-color="#D4FF7D"/>
      <stop offset="1" stop-color="#6BC018"/>
    </linearGradient>
  </defs>
  <rect x="82" y="46" width="156" height="318" rx="32" fill="url(#coolBody)" stroke="rgba(183,255,79,0.28)" stroke-width="4"/>
  <rect x="98" y="82" width="124" height="80" rx="22" fill="#0E1711"/>
  <rect x="98" y="170" width="124" height="80" rx="22" fill="#0E1711"/>
  <rect x="98" y="258" width="124" height="80" rx="22" fill="#0E1711"/>
  <g>
    <circle cx="160" cy="122" r="28" fill="url(#coolAccent)"/>
    <circle cx="160" cy="210" r="28" fill="url(#coolAccent)"/>
    <circle cx="160" cy="298" r="28" fill="url(#coolAccent)"/>
  </g>
  <g fill="rgba(15,21,16,0.24)">
    <path d="M160 98c10 0 12 10 12 24s-2 24-12 24-12-10-12-24 2-24 12-24Z"/>
    <path d="M160 186c10 0 12 10 12 24s-2 24-12 24-12-10-12-24 2-24 12-24Z"/>
    <path d="M160 274c10 0 12 10 12 24s-2 24-12 24-12-10-12-24 2-24 12-24Z"/>
  </g>
  <path d="M112 54c0-18 12-28 28-28h40c16 0 28 10 28 28" stroke="#84D81D" stroke-width="8" stroke-linecap="round"/>
  <path d="M128 386h64" stroke="#84D81D" stroke-width="8" stroke-linecap="round"/>
</svg>
